<mxfile host="app.diagrams.net" modified="2023-09-05T02:22:25.583Z" agent="Mozilla/5.0 (Windows NT 10.0; Win64; x64) AppleWebKit/537.36 (KHTML, like Gecko) Chrome/116.0.0.0 Safari/537.36 Edg/116.0.1938.69" etag="rSbshC-lF5GGwSc2fxzp" version="21.7.2" type="github">
  <diagram name="第 1 页" id="wHIKomhlDIc2CsQCEsFK">
    <mxGraphModel dx="447" dy="286" grid="1" gridSize="10" guides="1" tooltips="1" connect="1" arrows="1" fold="1" page="1" pageScale="1" pageWidth="827" pageHeight="1169" math="0" shadow="0">
      <root>
        <mxCell id="0" />
        <mxCell id="1" parent="0" />
        <mxCell id="rF8MqO2uAEI7rlvukZMH-1" value="" style="ellipse;html=1;shape=startState;fillColor=#000000;strokeColor=#ff0000;fontSize=15;" vertex="1" parent="1">
          <mxGeometry x="390" y="305" width="30" height="30" as="geometry" />
        </mxCell>
        <mxCell id="rF8MqO2uAEI7rlvukZMH-2" value="" style="edgeStyle=orthogonalEdgeStyle;html=1;verticalAlign=bottom;endArrow=open;endSize=8;strokeColor=#ff0000;rounded=0;entryX=0;entryY=0.5;entryDx=0;entryDy=0;exitX=0.858;exitY=0.514;exitDx=0;exitDy=0;exitPerimeter=0;fontSize=15;" edge="1" parent="1" source="rF8MqO2uAEI7rlvukZMH-1" target="rF8MqO2uAEI7rlvukZMH-3">
          <mxGeometry relative="1" as="geometry">
            <mxPoint x="575" y="300" as="targetPoint" />
            <mxPoint x="380" y="320" as="sourcePoint" />
            <Array as="points" />
          </mxGeometry>
        </mxCell>
        <mxCell id="rF8MqO2uAEI7rlvukZMH-3" value="连接数据库" style="rounded=1;whiteSpace=wrap;html=1;arcSize=40;fontColor=#000000;fillColor=#ffffc0;strokeColor=#ff0000;fontSize=15;" vertex="1" parent="1">
          <mxGeometry x="515" y="300" width="120" height="40" as="geometry" />
        </mxCell>
        <mxCell id="rF8MqO2uAEI7rlvukZMH-4" value="" style="edgeStyle=orthogonalEdgeStyle;html=1;verticalAlign=bottom;endArrow=open;endSize=8;strokeColor=#ff0000;rounded=0;fontSize=15;" edge="1" parent="1" source="rF8MqO2uAEI7rlvukZMH-3">
          <mxGeometry relative="1" as="geometry">
            <mxPoint x="575" y="400" as="targetPoint" />
          </mxGeometry>
        </mxCell>
        <mxCell id="rF8MqO2uAEI7rlvukZMH-5" value="调用start_unisock()" style="rounded=1;whiteSpace=wrap;html=1;arcSize=40;fontColor=#000000;fillColor=#ffffc0;strokeColor=#ff0000;fontSize=15;" vertex="1" parent="1">
          <mxGeometry x="515" y="400" width="120" height="40" as="geometry" />
        </mxCell>
        <mxCell id="rF8MqO2uAEI7rlvukZMH-13" value="" style="edgeStyle=orthogonalEdgeStyle;html=1;verticalAlign=bottom;endArrow=open;endSize=8;strokeColor=#ff0000;rounded=0;fontSize=15;" edge="1" parent="1">
          <mxGeometry relative="1" as="geometry">
            <mxPoint x="580" y="470" as="targetPoint" />
            <mxPoint x="614.98" y="519.5" as="sourcePoint" />
            <Array as="points">
              <mxPoint x="720" y="520" />
              <mxPoint x="720" y="470" />
            </Array>
          </mxGeometry>
        </mxCell>
        <mxCell id="rF8MqO2uAEI7rlvukZMH-14" value="NO" style="edgeLabel;html=1;align=center;verticalAlign=middle;resizable=0;points=[];fontSize=15;" vertex="1" connectable="0" parent="rF8MqO2uAEI7rlvukZMH-13">
          <mxGeometry x="0.021" y="4" relative="1" as="geometry">
            <mxPoint x="-59" y="26" as="offset" />
          </mxGeometry>
        </mxCell>
        <mxCell id="rF8MqO2uAEI7rlvukZMH-16" value="" style="ellipse;html=1;shape=endState;fillColor=#000000;strokeColor=#ff0000;fontSize=15;" vertex="1" parent="1">
          <mxGeometry x="907.49" y="1170" width="30" height="30" as="geometry" />
        </mxCell>
        <mxCell id="rF8MqO2uAEI7rlvukZMH-20" value="" style="edgeStyle=orthogonalEdgeStyle;html=1;verticalAlign=bottom;endArrow=open;endSize=8;strokeColor=#ff0000;rounded=0;exitX=0.5;exitY=1;exitDx=0;exitDy=0;entryX=0.5;entryY=0;entryDx=0;entryDy=0;fontSize=15;" edge="1" parent="1" source="rF8MqO2uAEI7rlvukZMH-23">
          <mxGeometry relative="1" as="geometry">
            <mxPoint x="575" y="792" as="targetPoint" />
            <mxPoint x="574.5" y="712" as="sourcePoint" />
            <Array as="points" />
          </mxGeometry>
        </mxCell>
        <mxCell id="rF8MqO2uAEI7rlvukZMH-21" value="分析报文类型" style="rounded=1;whiteSpace=wrap;html=1;arcSize=40;fontColor=#000000;fillColor=#ffffc0;strokeColor=#ff0000;fontSize=15;" vertex="1" parent="1">
          <mxGeometry x="497.49" y="610" width="155.02" height="41" as="geometry" />
        </mxCell>
        <mxCell id="rF8MqO2uAEI7rlvukZMH-23" value="调用对应的函数" style="rounded=1;whiteSpace=wrap;html=1;arcSize=40;fontColor=#000000;fillColor=#ffffc0;strokeColor=#ff0000;fontSize=15;" vertex="1" parent="1">
          <mxGeometry x="515" y="711" width="120" height="41" as="geometry" />
        </mxCell>
        <mxCell id="rF8MqO2uAEI7rlvukZMH-34" value="进行数据包转发" style="rounded=1;whiteSpace=wrap;html=1;arcSize=40;fontColor=#000000;fillColor=#ffffc0;strokeColor=#ff0000;fontSize=15;" vertex="1" parent="1">
          <mxGeometry x="860" y="1060" width="120" height="40" as="geometry" />
        </mxCell>
        <mxCell id="rF8MqO2uAEI7rlvukZMH-39" value="" style="edgeStyle=orthogonalEdgeStyle;html=1;verticalAlign=bottom;endArrow=open;endSize=8;strokeColor=#ff0000;rounded=0;exitX=0.5;exitY=1;exitDx=0;exitDy=0;entryX=0.5;entryY=0;entryDx=0;entryDy=0;fontSize=15;" edge="1" parent="1" target="rF8MqO2uAEI7rlvukZMH-16">
          <mxGeometry relative="1" as="geometry">
            <mxPoint x="905.5" y="1150" as="targetPoint" />
            <mxPoint x="904.48" y="1100" as="sourcePoint" />
            <Array as="points" />
          </mxGeometry>
        </mxCell>
        <mxCell id="rF8MqO2uAEI7rlvukZMH-40" value="" style="edgeStyle=orthogonalEdgeStyle;html=1;verticalAlign=bottom;endArrow=open;endSize=8;strokeColor=#ff0000;rounded=0;exitX=0.5;exitY=1;exitDx=0;exitDy=0;entryX=0.5;entryY=0;entryDx=0;entryDy=0;fontSize=15;" edge="1" parent="1" target="rF8MqO2uAEI7rlvukZMH-23">
          <mxGeometry relative="1" as="geometry">
            <mxPoint x="574.5" y="692" as="targetPoint" />
            <mxPoint x="574.5" y="652" as="sourcePoint" />
            <Array as="points" />
          </mxGeometry>
        </mxCell>
        <mxCell id="rF8MqO2uAEI7rlvukZMH-48" value="" style="rhombus;whiteSpace=wrap;html=1;fontColor=#000000;fillColor=#ffffc0;strokeColor=#ff0000;fontSize=15;" vertex="1" parent="1">
          <mxGeometry x="535" y="500" width="80" height="40" as="geometry" />
        </mxCell>
        <mxCell id="rF8MqO2uAEI7rlvukZMH-49" value="" style="edgeStyle=orthogonalEdgeStyle;html=1;verticalAlign=bottom;endArrow=open;endSize=8;strokeColor=#ff0000;rounded=0;fontSize=15;" edge="1" parent="1">
          <mxGeometry relative="1" as="geometry">
            <mxPoint x="575" y="500" as="targetPoint" />
            <mxPoint x="575" y="440" as="sourcePoint" />
          </mxGeometry>
        </mxCell>
        <mxCell id="rF8MqO2uAEI7rlvukZMH-52" value="" style="edgeStyle=orthogonalEdgeStyle;html=1;verticalAlign=bottom;endArrow=open;endSize=8;strokeColor=#ff0000;rounded=0;exitX=0.5;exitY=1;exitDx=0;exitDy=0;fontSize=15;" edge="1" parent="1">
          <mxGeometry relative="1" as="geometry">
            <mxPoint x="574.83" y="610" as="targetPoint" />
            <mxPoint x="574.83" y="540" as="sourcePoint" />
          </mxGeometry>
        </mxCell>
        <mxCell id="rF8MqO2uAEI7rlvukZMH-53" value="是否收到通信报文" style="edgeLabel;html=1;align=center;verticalAlign=middle;resizable=0;points=[];fontSize=15;" vertex="1" connectable="0" parent="rF8MqO2uAEI7rlvukZMH-52">
          <mxGeometry x="-0.1582" y="2" relative="1" as="geometry">
            <mxPoint x="-77" y="-99" as="offset" />
          </mxGeometry>
        </mxCell>
        <mxCell id="rF8MqO2uAEI7rlvukZMH-54" value="Yes" style="edgeLabel;html=1;align=center;verticalAlign=middle;resizable=0;points=[];fontSize=15;" vertex="1" connectable="0" parent="rF8MqO2uAEI7rlvukZMH-52">
          <mxGeometry x="-0.0386" relative="1" as="geometry">
            <mxPoint x="-35" y="-4" as="offset" />
          </mxGeometry>
        </mxCell>
        <mxCell id="rF8MqO2uAEI7rlvukZMH-55" value="" style="ellipse;html=1;shape=endState;fillColor=#000000;strokeColor=#ff0000;" vertex="1" parent="1">
          <mxGeometry x="560" y="790" width="30" height="30" as="geometry" />
        </mxCell>
      </root>
    </mxGraphModel>
  </diagram>
</mxfile>
